# xmcd
#
# Track frame offsets:
#	150
#	15233
#	26315
#	40956
#	58090
#	68537
#	81625
#	93889
#	101290
#	114486
#	129821
#	140170
#	161816
#	172080
#	182505
#
# Disc length: 2636 seconds
#
# Revision: 0
# Processed by: cddbd v1.5.2PL0 Copyright (c) Steve Scherf et al.
# Submitted via: EasyCDDAExtractor 8.2.2.1
#
DISCID=bc0a4a0f
DTITLE=Steve Martin - The Crow
DYEAR=2009
DGENRE=Bluegrass
TTITLE0=Daddy Played The Banjo
TTITLE1=Pitkin County Turnaround
TTITLE2=Hoedown At Alice's
TTITLE3=Late For School
TTITLE4=Tin Roof
TTITLE5=Words Unspoken
TTITLE6=Pretty Flowers
TTITLE7=Wally On The Run
TTITLE8=Freddie's Lilt
TTITLE9=Saga Of The Old West
TTITLE10=Clawhammer Medley
TTITLE11=Calico Train
TTITLE12=Banana Banjo
TTITLE13=Blue River Waltz
TTITLE14=The Crow
EXTD=
EXTT0=
EXTT1=
EXTT2=
EXTT3=
EXTT4=
EXTT5=
EXTT6=
EXTT7=
EXTT8=
EXTT9=
EXTT10=
EXTT11=
EXTT12=
EXTT13=
EXTT14=
PLAYORDER=
